<?xml version="1.0" encoding="us-ascii" standalone="no"?><svg xmlns="http://www.w3.org/2000/svg" xmlns:xlink="http://www.w3.org/1999/xlink" contentStyleType="text/css" height="940px" preserveAspectRatio="none" style="width:1744px;height:940px;background:#FFFFFF;" version="1.1" viewBox="0 0 1744 940" width="1744px" zoomAndPan="magnify"><defs/><g><text fill="#000000" font-family="sans-serif" font-size="14" font-weight="bold" lengthAdjust="spacing" textLength="430" x="650" y="24.5332">Use Case: &#1055;&#1086;&#1083;&#1100;&#1079;&#1086;&#1074;&#1072;&#1090;&#1077;&#1083;&#1080; API &#1050;&#1054;&#1052;&#1055;&#1040;&#1057; - &#1058;&#1045;&#1050;&#1059;&#1065;&#1040;&#1071; &#1057;&#1048;&#1058;&#1059;&#1040;&#1062;&#1048;&#1071;</text><!--cluster  --><g id="cluster_ "><rect fill="none" height="426" rx="2.5" ry="2.5" style="stroke:#181818;stroke-width:1.0;" width="242" x="40" y="292.1094"/><text fill="#000000" font-family="sans-serif" font-size="14" font-weight="bold" lengthAdjust="spacing" textLength="4" x="159" y="308.6426">&#160;</text></g><!--cluster ????????? ?????????--><g id="cluster_&#1044;&#1086;&#1089;&#1090;&#1091;&#1087;&#1085;&#1099;&#1077; &#1080;&#1089;&#1090;&#1086;&#1095;&#1085;&#1080;&#1082;&#1080;"><rect fill="none" height="500" rx="2.5" ry="2.5" style="stroke:#181818;stroke-width:1.0;" width="299" x="342" y="286.1094"/><text fill="#000000" font-family="sans-serif" font-size="14" font-weight="bold" lengthAdjust="spacing" textLength="154" x="414.5" y="302.6426">&#1044;&#1086;&#1089;&#1090;&#1091;&#1087;&#1085;&#1099;&#1077; &#1080;&#1089;&#1090;&#1086;&#1095;&#1085;&#1080;&#1082;&#1080;</text></g><!--cluster ???????? ? ?????? ???????--><g id="cluster_&#1055;&#1088;&#1086;&#1073;&#1083;&#1077;&#1084;&#1099; &#1080; &#1087;&#1086;&#1090;&#1077;&#1088;&#1080; &#1074;&#1088;&#1077;&#1084;&#1077;&#1085;&#1080;"><rect fill="none" height="278" rx="2.5" ry="2.5" style="stroke:#181818;stroke-width:1.0;" width="813" x="669" y="401.1094"/><text fill="#000000" font-family="sans-serif" font-size="14" font-weight="bold" lengthAdjust="spacing" textLength="213" x="969" y="417.6426">&#1055;&#1088;&#1086;&#1073;&#1083;&#1077;&#1084;&#1099; &#1080; &#1087;&#1086;&#1090;&#1077;&#1088;&#1080; &#1074;&#1088;&#1077;&#1084;&#1077;&#1085;&#1080;</text></g><!--cluster ??????????? ??? ???????--><g id="cluster_&#1055;&#1086;&#1089;&#1083;&#1077;&#1076;&#1089;&#1090;&#1074;&#1080;&#1103; &#1076;&#1083;&#1103; &#1073;&#1080;&#1079;&#1085;&#1077;&#1089;&#1072;"><rect fill="none" height="472" rx="2.5" ry="2.5" style="stroke:#181818;stroke-width:1.0;" width="228" x="1510" y="462.1094"/><text fill="#000000" font-family="sans-serif" font-size="14" font-weight="bold" lengthAdjust="spacing" textLength="186" x="1531" y="478.6426">&#1055;&#1086;&#1089;&#1083;&#1077;&#1076;&#1089;&#1090;&#1074;&#1080;&#1103; &#1076;&#1083;&#1103; &#1073;&#1080;&#1079;&#1085;&#1077;&#1089;&#1072;</text></g><!--entity Internal--><g id="elem_Internal"><ellipse cx="161" cy="597.1094" fill="#F1F1F1" rx="8" ry="8" style="stroke:#181818;stroke-width:0.5;"/><path d="M161,605.1094 L161,632.1094 M148,613.1094 L174,613.1094 M161,632.1094 L148,647.1094 M161,632.1094 L174,647.1094 " fill="none" style="stroke:#181818;stroke-width:0.5;"/><text fill="#000000" font-family="sans-serif" font-size="14" lengthAdjust="spacing" textLength="165" x="78.5" y="663.1426">&#1042;&#1085;&#1091;&#1090;&#1088;&#1077;&#1085;&#1085;&#1080;&#1081; &#1088;&#1072;&#1079;&#1088;&#1072;&#1073;&#1086;&#1090;&#1095;&#1080;&#1082;</text><text fill="#000000" font-family="sans-serif" font-size="14" lengthAdjust="spacing" textLength="210" x="56" y="680.752">(&#1050;&#1086;&#1084;&#1072;&#1085;&#1076;&#1072; &#1055;&#1088;&#1080;&#1083;&#1086;&#1078;&#1077;&#1085;&#1080;&#1081; &#1050;&#1086;&#1084;&#1087;&#1072;&#1089;&#1072;</text><text fill="#000000" font-family="sans-serif" font-size="14" lengthAdjust="spacing" textLength="154" x="84" y="698.3613">&#1087;&#1086;&#1076; &#1088;&#1091;&#1082;. &#1055;&#1072;&#1085;&#1095;&#1077;&#1085;&#1082;&#1086; &#1042;.&#1055;.)</text></g><!--entity SemiExternal--><g id="elem_SemiExternal"><ellipse cx="161" cy="467.1094" fill="#F1F1F1" rx="8" ry="8" style="stroke:#181818;stroke-width:0.5;"/><path d="M161,475.1094 L161,502.1094 M148,483.1094 L174,483.1094 M161,502.1094 L148,517.1094 M161,502.1094 L174,517.1094 " fill="none" style="stroke:#181818;stroke-width:0.5;"/><text fill="#000000" font-family="sans-serif" font-size="14" lengthAdjust="spacing" textLength="176" x="73" y="533.1426">&#1055;&#1086;&#1083;&#1091;&#1074;&#1085;&#1077;&#1096;&#1085;&#1080;&#1081; &#1088;&#1072;&#1079;&#1088;&#1072;&#1073;&#1086;&#1090;&#1095;&#1080;&#1082;</text><text fill="#000000" font-family="sans-serif" font-size="14" lengthAdjust="spacing" textLength="141" x="90.5" y="550.752">(&#1055;&#1072;&#1088;&#1090;&#1085;&#1105;&#1088;&#1099;, &#1074;&#1077;&#1085;&#1076;&#1086;&#1088;&#1099;)</text></g><!--entity External--><g id="elem_External"><ellipse cx="161" cy="337.1094" fill="#F1F1F1" rx="8" ry="8" style="stroke:#181818;stroke-width:0.5;"/><path d="M161,345.1094 L161,372.1094 M148,353.1094 L174,353.1094 M161,372.1094 L148,387.1094 M161,372.1094 L174,387.1094 " fill="none" style="stroke:#181818;stroke-width:0.5;"/><text fill="#000000" font-family="sans-serif" font-size="14" lengthAdjust="spacing" textLength="146" x="88" y="403.1426">&#1042;&#1085;&#1077;&#1096;&#1085;&#1080;&#1081; &#1088;&#1072;&#1079;&#1088;&#1072;&#1073;&#1086;&#1090;&#1095;&#1080;&#1082;</text><text fill="#000000" font-family="sans-serif" font-size="14" lengthAdjust="spacing" textLength="185" x="68.5" y="420.752">(&#1085;&#1077;&#1090; &#1076;&#1086;&#1089;&#1090;&#1091;&#1087;&#1072; &#1082; &#1082;&#1086;&#1084;&#1072;&#1085;&#1076;&#1077; API)</text></g><g id="elem_S1"><ellipse cx="491.6604" cy="350.0128" fill="#F1F1F1" rx="78.6604" ry="27.9034" style="stroke:#181818;stroke-width:0.5;"/><text fill="#000000" font-family="sans-serif" font-size="14" lengthAdjust="spacing" textLength="95" x="444.1604" y="344.9366">&#1054;&#1092;&#1080;&#1094;&#1080;&#1072;&#1083;&#1100;&#1085;&#1072;&#1103;</text><text fill="#000000" font-family="sans-serif" font-size="14" lengthAdjust="spacing" textLength="84" x="449.6604" y="362.546">&#1089;&#1087;&#1088;&#1072;&#1074;&#1082;&#1072; SDK</text></g><g id="elem_S2"><ellipse cx="491.4806" cy="441.1403" fill="#F1F1F1" rx="120.9806" ry="28.0309" style="stroke:#181818;stroke-width:0.5;"/><text fill="#000000" font-family="sans-serif" font-size="14" lengthAdjust="spacing" textLength="154" x="411.4806" y="436.8522">&#1050;&#1083;&#1072;&#1089;&#1089;&#1080;&#1095;&#1077;&#1089;&#1082;&#1080;&#1077; &#1087;&#1088;&#1080;&#1084;&#1077;&#1088;&#1099;</text><text fill="#000000" font-family="sans-serif" font-size="14" lengthAdjust="spacing" textLength="123" x="426.9806" y="454.4616">(30 &#1096;&#1090;. &#1086;&#1090; API dev)</text></g><g id="elem_S3"><ellipse cx="491.5452" cy="544.9645" fill="#F1F1F1" rx="97.0452" ry="40.3551" style="stroke:#181818;stroke-width:0.5;"/><text fill="#000000" font-family="sans-serif" font-size="14" lengthAdjust="spacing" textLength="94" x="444.5452" y="531.0836">&#1058;&#1077;&#1093;&#1087;&#1086;&#1076;&#1076;&#1077;&#1088;&#1078;&#1082;&#1072;</text><text fill="#000000" font-family="sans-serif" font-size="14" lengthAdjust="spacing" textLength="117" x="431.0452" y="548.693">(&#1042;&#1083;&#1072;&#1076;&#1080;&#1084;&#1080;&#1088; &#1051;&#1080;&#1087;&#1080;&#1085;</text><text fill="#000000" font-family="sans-serif" font-size="14" lengthAdjust="spacing" textLength="98" x="442.5452" y="566.3024">&#1080; &#1077;&#1075;&#1086; &#1082;&#1086;&#1084;&#1072;&#1085;&#1076;&#1072;)</text></g><g id="elem_S4"><ellipse cx="491.2622" cy="650.1618" fill="#F1F1F1" rx="133.2622" ry="29.0524" style="stroke:#181818;stroke-width:0.5;"/><text fill="#000000" font-family="sans-serif" font-size="14" lengthAdjust="spacing" textLength="66" x="458.2622" y="645.0857">&#1047;&#1085;&#1072;&#1082;&#1086;&#1084;&#1099;&#1077;</text><text fill="#000000" font-family="sans-serif" font-size="14" lengthAdjust="spacing" textLength="180" x="401.2622" y="662.695">(&#1074;&#1085;&#1091;&#1090;&#1088;&#1077;&#1085;&#1085;&#1080;&#1077;/&#1087;&#1086;&#1083;&#1091;&#1074;&#1085;&#1077;&#1096;&#1085;&#1080;&#1077;)</text></g><g id="elem_S5"><ellipse cx="491.4447" cy="742.0128" fill="#F1F1F1" rx="106.9447" ry="27.9034" style="stroke:#181818;stroke-width:0.5;"/><text fill="#000000" font-family="sans-serif" font-size="14" lengthAdjust="spacing" textLength="113" x="434.9447" y="736.9366">&#1055;&#1088;&#1103;&#1084;&#1099;&#1077; &#1074;&#1086;&#1087;&#1088;&#1086;&#1089;&#1099;</text><text fill="#000000" font-family="sans-serif" font-size="14" lengthAdjust="spacing" textLength="135" x="423.9447" y="754.546">&#1082; &#1088;&#1072;&#1079;&#1088;&#1072;&#1073;&#1086;&#1090;&#1095;&#1080;&#1082;&#1072;&#1084; API</text></g><g id="elem_P1"><ellipse cx="1085.1163" cy="465.0128" fill="#F1F1F1" rx="104.1163" ry="27.9034" style="stroke:#181818;stroke-width:0.5;"/><text fill="#000000" font-family="sans-serif" font-size="14" lengthAdjust="spacing" textLength="94" x="1038.1163" y="459.9366">&#1063;&#1072;&#1089;&#1099; &#1085;&#1072; &#1087;&#1086;&#1080;&#1089;&#1082;</text><text fill="#000000" font-family="sans-serif" font-size="14" lengthAdjust="spacing" textLength="131" x="1019.6163" y="477.546">&#1074; &#1085;&#1077;&#1087;&#1086;&#1083;&#1085;&#1086;&#1081; &#1089;&#1087;&#1088;&#1072;&#1074;&#1082;&#1077;</text></g><g id="elem_P2"><ellipse cx="803.1904" cy="641.0474" fill="#F1F1F1" rx="95.1904" ry="21.4381" style="stroke:#181818;stroke-width:0.5;"/><text fill="#000000" font-family="sans-serif" font-size="14" lengthAdjust="spacing" textLength="150" x="728.1904" y="644.776">&#1056;&#1077;&#1074;&#1077;&#1088;&#1089;&#1080;&#1085;&#1075; &#1095;&#1091;&#1078;&#1086;&#1075;&#1086; &#1082;&#1086;&#1076;&#1072;</text></g><g id="elem_P3"><ellipse cx="1085.1838" cy="581.0135" fill="#F1F1F1" rx="90.6838" ry="27.9041" style="stroke:#181818;stroke-width:0.5;"/><text fill="#000000" font-family="sans-serif" font-size="14" lengthAdjust="spacing" textLength="112" x="1028.7106" y="576.0717">&#1043;&#1072;&#1076;&#1072;&#1085;&#1080;&#1077;: &#1087;&#1086;&#1095;&#1077;&#1084;&#1091;</text><text fill="#000000" font-family="sans-serif" font-size="14" lengthAdjust="spacing" textLength="90" x="1039.7106" y="593.6811">&#1085;&#1077; &#1088;&#1072;&#1073;&#1086;&#1090;&#1072;&#1077;&#1090;?</text></g><g id="elem_P4"><ellipse cx="803.2485" cy="556.0215" fill="#F1F1F1" rx="94.2485" ry="27.9121" style="stroke:#181818;stroke-width:0.5;"/><text fill="#000000" font-family="sans-serif" font-size="14" lengthAdjust="spacing" textLength="117" x="743.0465" y="551.41">&#1054;&#1078;&#1080;&#1076;&#1072;&#1085;&#1080;&#1077; &#1086;&#1090;&#1074;&#1077;&#1090;&#1072;</text><text fill="#000000" font-family="sans-serif" font-size="14" lengthAdjust="spacing" textLength="111" x="746.0465" y="569.0194">&#1086;&#1090; &#1090;&#1077;&#1093;&#1087;&#1086;&#1076;&#1076;&#1077;&#1088;&#1078;&#1082;&#1080;</text></g><g id="elem_P5"><ellipse cx="803.0887" cy="465.1296" fill="#F1F1F1" rx="118.0887" ry="28.0202" style="stroke:#181818;stroke-width:0.5;"/><text fill="#000000" font-family="sans-serif" font-size="14" lengthAdjust="spacing" textLength="150" x="725.0887" y="460.8415">&#1059;&#1089;&#1090;&#1072;&#1088;&#1077;&#1074;&#1096;&#1080;&#1077;/&#1085;&#1077;&#1074;&#1077;&#1088;&#1085;&#1099;&#1077;</text><text fill="#000000" font-family="sans-serif" font-size="14" lengthAdjust="spacing" textLength="60" x="770.0887" y="478.4509">&#1087;&#1088;&#1080;&#1084;&#1077;&#1088;&#1099;</text></g><g id="elem_P6"><ellipse cx="1357.6901" cy="465.0911" fill="#F1F1F1" rx="108.6901" ry="27.9817" style="stroke:#181818;stroke-width:0.5;"/><text fill="#000000" font-family="sans-serif" font-size="14" lengthAdjust="spacing" textLength="137" x="1286.1901" y="460.803">&#1041;&#1088;&#1086;&#1096;&#1077;&#1085;&#1085;&#1099;&#1077; &#1087;&#1088;&#1086;&#1077;&#1082;&#1090;&#1099;</text><text fill="#000000" font-family="sans-serif" font-size="14" lengthAdjust="spacing" textLength="107" x="1301.1901" y="478.4124">&#1080;&#1079;-&#1079;&#1072; &#1089;&#1083;&#1086;&#1078;&#1085;&#1086;&#1089;&#1090;&#1080;</text></g><g id="elem_C1"><ellipse cx="1624.1838" cy="708.0135" fill="#F1F1F1" rx="90.6838" ry="27.9041" style="stroke:#181818;stroke-width:0.5;"/><text fill="#000000" font-family="sans-serif" font-size="14" lengthAdjust="spacing" textLength="112" x="1567.7106" y="703.0717">&#1047;&#1072;&#1090;&#1103;&#1085;&#1091;&#1090;&#1099;&#1077; &#1089;&#1088;&#1086;&#1082;&#1080;</text><text fill="#000000" font-family="sans-serif" font-size="14" lengthAdjust="spacing" textLength="75" x="1586.2106" y="720.6811">&#1088;&#1072;&#1079;&#1088;&#1072;&#1073;&#1086;&#1090;&#1082;&#1080;</text></g><g id="elem_C2"><ellipse cx="1624.0746" cy="617.0128" fill="#F1F1F1" rx="80.0746" ry="27.9034" style="stroke:#181818;stroke-width:0.5;"/><text fill="#000000" font-family="sans-serif" font-size="14" lengthAdjust="spacing" textLength="90" x="1579.0746" y="611.9366">&#1044;&#1077;&#1084;&#1086;&#1090;&#1080;&#1074;&#1072;&#1094;&#1080;&#1103;</text><text fill="#000000" font-family="sans-serif" font-size="14" lengthAdjust="spacing" textLength="97" x="1575.5746" y="629.546">&#1088;&#1072;&#1079;&#1088;&#1072;&#1073;&#1086;&#1090;&#1095;&#1080;&#1082;&#1086;&#1074;</text></g><g id="elem_C3"><ellipse cx="1624.1899" cy="526.0128" fill="#F1F1F1" rx="61.6899" ry="27.9034" style="stroke:#181818;stroke-width:0.5;"/><text fill="#000000" font-family="sans-serif" font-size="14" lengthAdjust="spacing" textLength="57" x="1595.6899" y="520.9366">&#1054;&#1090;&#1082;&#1072;&#1079; &#1086;&#1090;</text><text fill="#000000" font-family="sans-serif" font-size="14" lengthAdjust="spacing" textLength="71" x="1588.6899" y="538.546">&#1074;&#1085;&#1077;&#1076;&#1088;&#1077;&#1085;&#1080;&#1103;</text></g><g id="elem_C4"><ellipse cx="1623.832" cy="799.0128" fill="#F1F1F1" rx="75.832" ry="27.9034" style="stroke:#181818;stroke-width:0.5;"/><text fill="#000000" font-family="sans-serif" font-size="14" lengthAdjust="spacing" textLength="77" x="1585.332" y="793.9366">&#1053;&#1072;&#1075;&#1088;&#1091;&#1079;&#1082;&#1072; &#1085;&#1072;</text><text fill="#000000" font-family="sans-serif" font-size="14" lengthAdjust="spacing" textLength="91" x="1578.332" y="811.546">&#1090;&#1077;&#1093;&#1087;&#1086;&#1076;&#1076;&#1077;&#1088;&#1078;&#1082;&#1091;</text></g><g id="elem_C5"><ellipse cx="1623.7523" cy="890.0128" fill="#F1F1F1" rx="97.7523" ry="27.9034" style="stroke:#181818;stroke-width:0.5;"/><text fill="#000000" font-family="sans-serif" font-size="14" lengthAdjust="spacing" textLength="80" x="1583.7523" y="884.9366">&#1054;&#1090;&#1074;&#1083;&#1077;&#1095;&#1077;&#1085;&#1080;&#1077;</text><text fill="#000000" font-family="sans-serif" font-size="14" lengthAdjust="spacing" textLength="122" x="1562.7523" y="902.546">&#1088;&#1072;&#1079;&#1088;&#1072;&#1073;&#1086;&#1090;&#1095;&#1080;&#1082;&#1086;&#1074; API</text></g><g id="elem_GMN60"><path d="M24,232.6094 L24,275.3125 A0,0 0 0 0 24,275.3125 L252,275.3125 L256,588.2594 L260,275.3125 L298,275.3125 A0,0 0 0 0 298,275.3125 L298,242.6094 L288,232.6094 L24,232.6094 A0,0 0 0 0 24,232.6094 " fill="#FEFFDD" style="stroke:#181818;stroke-width:0.5;"/><path d="M288,232.6094 L288,242.6094 L298,242.6094 L288,232.6094 " fill="#FEFFDD" style="stroke:#181818;stroke-width:0.5;"/><text fill="#000000" font-family="sans-serif" font-size="13" lengthAdjust="spacing" textLength="253" x="30" y="251.1045">&#9888;&#65039; &#1045;&#1089;&#1090;&#1100; &#1087;&#1088;&#1103;&#1084;&#1086;&#1081; &#1076;&#1086;&#1089;&#1090;&#1091;&#1087; &#1082; &#1088;&#1072;&#1079;&#1088;&#1072;&#1073;&#1086;&#1090;&#1095;&#1080;&#1082;&#1072;&#1084;,</text><text fill="#000000" font-family="sans-serif" font-size="13" lengthAdjust="spacing" textLength="187" x="63" y="267.4561">&#1085;&#1086; &#1101;&#1090;&#1086; &#1089;&#1086;&#1079;&#1076;&#1072;&#1105;&#1090; &#1085;&#1072;&#1075;&#1088;&#1091;&#1079;&#1082;&#1091; &#1085;&#1072; &#1085;&#1080;&#1093;</text></g><g id="elem_GMN63"><path d="M31,154.6094 L31,197.3125 L291,197.3125 L291,164.6094 L281,154.6094 L31,154.6094 " fill="#FEFFDD" style="stroke:#181818;stroke-width:0.5;"/><path d="M281,154.6094 L281,164.6094 L291,164.6094 L281,154.6094 " fill="#FEFFDD" style="stroke:#181818;stroke-width:1.0;"/><text fill="#000000" font-family="sans-serif" font-size="13" lengthAdjust="spacing" textLength="239" x="37" y="173.1045">&#9888;&#65039; &#1048;&#1085;&#1092;&#1086;&#1088;&#1084;&#1072;&#1094;&#1080;&#1103; &#1087;&#1088;&#1080;&#1093;&#1086;&#1076;&#1080;&#1090; &#1089; &#1079;&#1072;&#1076;&#1077;&#1088;&#1078;&#1082;&#1086;&#1081;</text><text fill="#000000" font-family="sans-serif" font-size="13" lengthAdjust="spacing" textLength="198" x="57.5" y="189.4561">&#1076;&#1083;&#1103; &#1087;&#1086;&#1083;&#1091;&#1074;&#1085;&#1077;&#1096;&#1085;&#1080;&#1093; &#1088;&#1072;&#1079;&#1088;&#1072;&#1073;&#1086;&#1090;&#1095;&#1080;&#1082;&#1086;&#1074;</text></g><g id="elem_GMN66"><path d="M27.5,44.6094 L27.5,120.0156 L294.5,120.0156 L294.5,54.6094 L284.5,44.6094 L27.5,44.6094 " fill="#FEFFDD" style="stroke:#181818;stroke-width:0.5;"/><path d="M284.5,44.6094 L284.5,54.6094 L294.5,54.6094 L284.5,44.6094 " fill="#FEFFDD" style="stroke:#181818;stroke-width:1.0;"/><text fill="#000000" font-family="sans-serif" font-size="13" lengthAdjust="spacing" textLength="133" x="90" y="63.1045">&#9888;&#65039; &#1057;&#1072;&#1084;&#1099;&#1077; &#1091;&#1103;&#1079;&#1074;&#1080;&#1084;&#1099;&#1077;:</text><text fill="#000000" font-family="sans-serif" font-size="13" lengthAdjust="spacing" textLength="246" x="33.5" y="79.4561">&#1090;&#1086;&#1083;&#1100;&#1082;&#1086; &#1089;&#1087;&#1088;&#1072;&#1074;&#1082;&#1072; + &#1082;&#1083;&#1072;&#1089;&#1089;&#1080;&#1095;&#1077;&#1089;&#1082;&#1080;&#1077; &#1087;&#1088;&#1080;&#1084;&#1077;&#1088;&#1099;</text><text fill="#000000" font-family="sans-serif" font-size="13" lengthAdjust="spacing" textLength="188" x="62.5" y="95.8076">&#1086;&#1090; &#1088;&#1072;&#1079;&#1088;&#1072;&#1073;&#1086;&#1090;&#1095;&#1080;&#1082;&#1086;&#1074; API &#1050;&#1054;&#1052;&#1055;&#1040;&#1057;</text><text fill="#000000" font-family="sans-serif" font-size="13" lengthAdjust="spacing" textLength="202" x="55.5" y="112.1592">&#1074;&#1099;&#1089;&#1086;&#1082;&#1080;&#1081; &#1088;&#1080;&#1089;&#1082; &#1073;&#1088;&#1086;&#1089;&#1080;&#1090;&#1100; &#1088;&#1072;&#1079;&#1088;&#1072;&#1073;&#1086;&#1090;&#1082;&#1091;</text></g><!--link Internal to S1--><g id="link_Internal_S1"><path d="M259,588.5094 C259,503.6694 259,353.3594 259,353.3594 C259,353.3594 339.89,353.3594 407.43,353.3594 " fill="none" id="Internal-to-S1" style="stroke:#181818;stroke-width:1.0;"/><polygon fill="#181818" points="413.43,353.3594,404.43,349.3594,408.43,353.3594,404.43,357.3594,413.43,353.3594" style="stroke:#181818;stroke-width:1.0;"/></g><!--link Internal to S2--><g id="link_Internal_S2"><path d="M266.15,598.8594 C323.53,598.8594 383,598.8594 383,598.8594 C383,598.8594 383,497.1894 383,459.7494 " fill="none" id="Internal-to-S2" style="stroke:#181818;stroke-width:1.0;"/><polygon fill="#181818" points="383,453.7494,379,462.7494,383,458.7494,387,462.7494,383,453.7494" style="stroke:#181818;stroke-width:1.0;"/></g><!--link Internal to S3--><g id="link_Internal_S3"><path d="M264,588.2694 C264,577.5494 264,569.6094 264,569.6094 C264,569.6094 342.21,569.6094 408.16,569.6094 " fill="none" id="Internal-to-S3" style="stroke:#181818;stroke-width:1.0;"/><polygon fill="#181818" points="414.16,569.6094,405.16,565.6094,409.16,569.6094,405.16,573.6094,414.16,569.6094" style="stroke:#181818;stroke-width:1.0;"/></g><!--link Internal to S4--><g id="link_Internal_S4"><path d="M266.03,650.1094 C295.23,650.1094 321.34,650.1094 351.94,650.1094 " fill="none" id="Internal-to-S4" style="stroke:#181818;stroke-width:1.0;"/><polygon fill="#181818" points="357.94,650.1094,348.94,646.1094,352.94,650.1094,348.94,654.1094,357.94,650.1094" style="stroke:#181818;stroke-width:1.0;"/></g><!--link Internal to S5--><g id="link_Internal_S5"><path d="M266.19,687.2794 C363.11,687.2794 492,687.2794 492,687.2794 C492,687.2794 492,694.5594 492,708.0494 " fill="none" id="Internal-to-S5" style="stroke:#181818;stroke-width:1.0;"/><polygon fill="#181818" points="492,714.0494,496,705.0494,492,709.0494,488,705.0494,492,714.0494" style="stroke:#181818;stroke-width:1.0;"/></g><!--link S1 to P1--><g id="link_S1_P1"><path d="M559.66,336.1094 C725.59,336.1094 1137,336.1094 1137,336.1094 C1137,336.1094 1137,397.4794 1137,434.8494 " fill="none" id="S1-to-P1" style="stroke:#181818;stroke-width:1.0;"/><polygon fill="#181818" points="1137,440.8494,1141,431.8494,1137,435.8494,1133,431.8494,1137,440.8494" style="stroke:#181818;stroke-width:1.0;"/><text fill="#000000" font-family="sans-serif" font-size="13" lengthAdjust="spacing" textLength="65" x="834.7" y="350.6045">&#1087;&#1088;&#1080;&#1074;&#1086;&#1076;&#1080;&#1090; &#1082;</text></g><!--link S1 to P1--><g id="link_S1_P1"><path d="M559.53,364.1094 C704.97,364.1094 1033,364.1094 1033,364.1094 C1033,364.1094 1033,404.7694 1033,434.6594 " fill="none" id="S1-to-P1-1" style="stroke:#181818;stroke-width:1.0;"/><polygon fill="#181818" points="1033,440.6594,1037,431.6594,1033,435.6594,1029,431.6594,1033,440.6594" style="stroke:#181818;stroke-width:1.0;"/></g><!--link S1 to P1--><g id="link_S1_P1"><path d="M570.01,350.1094 C731.31,350.1094 1085,350.1094 1085,350.1094 C1085,350.1094 1085,396.9294 1085,430.9794 " fill="none" id="S1-to-P1-2" style="stroke:#181818;stroke-width:1.0;"/><polygon fill="#181818" points="1085,436.9794,1089,427.9794,1085,431.9794,1081,427.9794,1085,436.9794" style="stroke:#181818;stroke-width:1.0;"/></g><!--link S2 to P5--><g id="link_S2_P5"><path d="M611.49,445.1094 C647.82,445.1094 680.9,445.1094 714.22,445.1094 " fill="none" id="S2-to-P5" style="stroke:#181818;stroke-width:1.0;"/><polygon fill="#181818" points="720.22,445.1094,711.22,441.1094,715.22,445.1094,711.22,449.1094,720.22,445.1094" style="stroke:#181818;stroke-width:1.0;"/><text fill="#000000" font-family="sans-serif" font-size="13" lengthAdjust="spacing" textLength="33" x="631.86" y="459.6045">&#1095;&#1072;&#1089;&#1090;&#1086;</text></g><!--link S2 to P5--><g id="link_S2_P5"><path d="M600.89,453.1094 C631.83,453.1094 659.45,453.1094 690.24,453.1094 " fill="none" id="S2-to-P5-1" style="stroke:#181818;stroke-width:1.0;"/><polygon fill="#181818" points="696.24,453.1094,687.24,449.1094,691.24,453.1094,687.24,457.1094,696.24,453.1094" style="stroke:#181818;stroke-width:1.0;"/></g><!--link S2 to P5--><g id="link_S2_P5"><path d="M576.21,461.1094 C610.08,461.1094 643.65,461.1094 680.17,461.1094 " fill="none" id="S2-to-P5-2" style="stroke:#181818;stroke-width:1.0;"/><polygon fill="#181818" points="686.17,461.1094,677.17,457.1094,681.17,461.1094,677.17,465.1094,686.17,461.1094" style="stroke:#181818;stroke-width:1.0;"/></g><!--link S3 to P4--><g id="link_S3_P4"><path d="M568.1,570.1094 C614.67,570.1094 668.09,570.1094 715.52,570.1094 " fill="none" id="S3-to-P4" style="stroke:#181818;stroke-width:1.0;"/><polygon fill="#181818" points="721.52,570.1094,712.52,566.1094,716.52,570.1094,712.52,574.1094,721.52,570.1094" style="stroke:#181818;stroke-width:1.0;"/><text fill="#000000" font-family="sans-serif" font-size="13" lengthAdjust="spacing" textLength="57" x="645.81" y="584.6045">&#1074;&#1099;&#1079;&#1099;&#1074;&#1072;&#1077;&#1090;</text></g><!--link S3 to P4--><g id="link_S3_P4"><path d="M584.96,556.1094 C624.12,556.1094 663.56,556.1094 702.8,556.1094 " fill="none" id="S3-to-P4-1" style="stroke:#181818;stroke-width:1.0;"/><polygon fill="#181818" points="708.8,556.1094,699.8,552.1094,703.8,556.1094,699.8,560.1094,708.8,556.1094" style="stroke:#181818;stroke-width:1.0;"/></g><!--link S3 to P4--><g id="link_S3_P4"><path d="M588.35,542.1094 C631.04,542.1094 674.64,542.1094 715.41,542.1094 " fill="none" id="S3-to-P4-2" style="stroke:#181818;stroke-width:1.0;"/><polygon fill="#181818" points="721.41,542.1094,712.41,538.1094,716.41,542.1094,712.41,546.1094,721.41,542.1094" style="stroke:#181818;stroke-width:1.0;"/></g><!--link S4 to P2--><g id="link_S4_P2"><path d="M605.72,634.9394 C640.62,634.9394 672.53,634.9394 705.69,634.9394 " fill="none" id="S4-to-P2" style="stroke:#181818;stroke-width:1.0;"/><polygon fill="#181818" points="711.69,634.9394,702.69,630.9394,706.69,634.9394,702.69,638.9394,711.69,634.9394" style="stroke:#181818;stroke-width:1.0;"/><text fill="#000000" font-family="sans-serif" font-size="13" lengthAdjust="spacing" textLength="41" x="659.71" y="649.4345">&#1080;&#1085;&#1086;&#1075;&#1076;&#1072;</text></g><!--link S4 to P2--><g id="link_S4_P2"><path d="M624.96,648.7794 C655.01,648.7794 680.2,648.7794 707.91,648.7794 " fill="none" id="S4-to-P2-1" style="stroke:#181818;stroke-width:1.0;"/><polygon fill="#181818" points="713.91,648.7794,704.91,644.7794,708.91,648.7794,704.91,652.7794,713.91,648.7794" style="stroke:#181818;stroke-width:1.0;"/></g><!--link S5 to C5--><g id="link_S5_C5"><path d="M590.14,753.1094 C849.36,753.1094 1530,753.1094 1530,753.1094 C1530,753.1094 1530,846.4594 1530,875.9494 " fill="none" id="S5-to-C5" style="stroke:#181818;stroke-width:1.0;"/><polygon fill="#181818" points="1530,881.9494,1534,872.9494,1530,876.9494,1526,872.9494,1530,881.9494" style="stroke:#181818;stroke-width:1.0;"/><text fill="#000000" font-family="sans-serif" font-size="13" lengthAdjust="spacing" textLength="58" x="1065.49" y="767.6045">&#1086;&#1090;&#1074;&#1083;&#1077;&#1082;&#1072;&#1077;&#1090;</text></g><!--link SemiExternal to S1--><g id="link_SemiExternal_S1"><path d="M249.26,461.2294 C267.86,461.2294 282,461.2294 282,461.2294 C282,461.2294 282,365.7294 282,365.7294 C282,365.7294 358.6,365.7294 420.07,365.7294 " fill="none" id="SemiExternal-to-S1" style="stroke:#181818;stroke-width:1.0;"/><polygon fill="#181818" points="426.07,365.7294,417.07,361.7294,421.07,365.7294,417.07,369.7294,426.07,365.7294" style="stroke:#181818;stroke-width:1.0;"/></g><!--link SemiExternal to S2--><g id="link_SemiExternal_S2"><path d="M249.13,466.4894 C310.13,466.4894 383.21,466.4894 434.15,466.4894 " fill="none" id="SemiExternal-to-S2" style="stroke:#181818;stroke-width:1.0;"/><polygon fill="#181818" points="440.15,466.4894,431.15,462.4894,435.15,466.4894,431.15,470.4894,440.15,466.4894" style="stroke:#181818;stroke-width:1.0;"/></g><!--link SemiExternal to S3--><g id="link_SemiExternal_S3"><path d="M249.13,529.1094 C296.46,529.1094 348.67,529.1094 396.18,529.1094 " fill="none" id="SemiExternal-to-S3" style="stroke:#181818;stroke-width:1.0;"/><polygon fill="#181818" points="402.18,529.1094,393.18,525.1094,397.18,529.1094,393.18,533.1094,402.18,529.1094" style="stroke:#181818;stroke-width:1.0;"/></g><!--link SemiExternal to S4--><g id="link_SemiExternal_S4"><path d="M249.29,541.3594 C304.42,541.3594 365,541.3594 365,541.3594 C365,541.3594 365,608.5394 365,634.8394 " fill="none" id="SemiExternal-to-S4" style="stroke:#181818;stroke-width:1.0;"/><polygon fill="#181818" points="365,640.8394,369,631.8394,365,635.8394,361,631.8394,365,640.8394" style="stroke:#181818;stroke-width:1.0;"/></g><!--link External to S1--><g id="link_External_S1"><path d="M253.5,340.9894 C305.16,340.9894 362.66,340.9894 411.08,340.9894 " fill="none" id="External-to-S1" style="stroke:#181818;stroke-width:1.0;"/><polygon fill="#181818" points="417.08,340.9894,408.08,336.9894,412.08,340.9894,408.08,344.9894,417.08,340.9894" style="stroke:#181818;stroke-width:1.0;"/></g><!--link External to S2--><g id="link_External_S2"><path d="M253.5,416.6094 C310.98,416.6094 377.13,416.6094 426.84,416.6094 " fill="none" id="External-to-S2" style="stroke:#181818;stroke-width:1.0;"/><polygon fill="#181818" points="432.84,416.6094,423.84,412.6094,427.84,416.6094,423.84,420.6094,432.84,416.6094" style="stroke:#181818;stroke-width:1.0;"/></g><!--link External to S3--><g id="link_External_S3"><path d="M253.81,420.1094 C258.31,420.1094 261,420.1094 261,420.1094 C261,420.1094 261,516.8594 261,516.8594 C261,516.8594 347.87,516.8594 415.72,516.8594 " fill="none" id="External-to-S3" style="stroke:#181818;stroke-width:1.0;"/><polygon fill="#181818" points="421.72,516.8594,412.72,512.8594,416.72,516.8594,412.72,520.8594,421.72,516.8594" style="stroke:#181818;stroke-width:1.0;"/></g><!--link P1 to P6--><g id="link_P1_P6"><path d="M1189.19,465.1094 C1208.72,465.1094 1223.18,465.1094 1242.85,465.1094 " fill="none" id="P1-to-P6" style="stroke:#181818;stroke-width:1.0;"/><polygon fill="#181818" points="1248.85,465.1094,1239.85,461.1094,1243.85,465.1094,1239.85,469.1094,1248.85,465.1094" style="stroke:#181818;stroke-width:1.0;"/><text fill="#000000" font-family="sans-serif" font-size="13" lengthAdjust="spacing" textLength="44" x="1174.02" y="479.6045">&#1074;&#1077;&#1076;&#1105;&#1090; &#1082;</text></g><!--link P2 to P3--><g id="link_P2_P3"><path d="M889.91,632.3594 C972.77,632.3594 1085,632.3594 1085,632.3594 C1085,632.3594 1085,627.0994 1085,615.1294 " fill="none" id="P2-to-P3" style="stroke:#181818;stroke-width:1.0;"/><polygon fill="#181818" points="1085,609.1294,1081,618.1294,1085,614.1294,1089,618.1294,1085,609.1294" style="stroke:#181818;stroke-width:1.0;"/><text fill="#000000" font-family="sans-serif" font-size="13" lengthAdjust="spacing" textLength="57" x="941.07" y="646.8545">&#1074;&#1099;&#1079;&#1099;&#1074;&#1072;&#1077;&#1090;</text></g><!--link P3 to P6--><g id="link_P3_P6"><path d="M1170.26,571.6094 C1250.36,571.6094 1358,571.6094 1358,571.6094 C1358,571.6094 1358,530.9194 1358,499.3694 " fill="none" id="P3-to-P6" style="stroke:#181818;stroke-width:1.0;"/><polygon fill="#181818" points="1358,493.3694,1354,502.3694,1358,498.3694,1362,502.3694,1358,493.3694" style="stroke:#181818;stroke-width:1.0;"/></g><!--link P4 to P1--><g id="link_P4_P1"><path d="M881.46,540.6094 C931.88,540.6094 988,540.6094 988,540.6094 C988,540.6094 988,501.8994 988,481.2894 " fill="none" id="P4-to-P1" style="stroke:#181818;stroke-width:1.0;"/><polygon fill="#181818" points="988,475.2894,984,484.2894,988,480.2894,992,484.2894,988,475.2894" style="stroke:#181818;stroke-width:1.0;"/></g><!--link P5 to P3--><g id="link_P5_P3"><path d="M910,477.1694 C910,503.4294 910,563.4394 910,563.4394 C910,563.4394 959.95,563.4394 1008.58,563.4394 " fill="none" id="P5-to-P3" style="stroke:#181818;stroke-width:1.0;"/><polygon fill="#181818" points="1014.58,563.4394,1005.58,559.4394,1009.58,563.4394,1005.58,567.4394,1014.58,563.4394" style="stroke:#181818;stroke-width:1.0;"/></g><!--link P1 to C1--><g id="link_P1_C1"><path d="M1183,474.6694 C1183,518.0794 1183,694.4394 1183,694.4394 C1183,694.4394 1412,694.4394 1538.9,694.4394 " fill="none" id="P1-to-C1" style="stroke:#181818;stroke-width:1.0;"/><polygon fill="#181818" points="1544.9,694.4394,1535.9,690.4394,1539.9,694.4394,1535.9,698.4394,1544.9,694.4394" style="stroke:#181818;stroke-width:1.0;"/></g><!--link P2 to C1--><g id="link_P2_C1"><path d="M879.68,653.8594 C1068.19,653.8594 1539,653.8594 1539,653.8594 C1539,653.8594 1539,676.8094 1539,692.4094 " fill="none" id="P2-to-C1" style="stroke:#181818;stroke-width:1.0;"/><polygon fill="#181818" points="1539,698.4094,1543,689.4094,1539,693.4094,1535,689.4094,1539,698.4094" style="stroke:#181818;stroke-width:1.0;"/></g><!--link P3 to C2--><g id="link_P3_C2"><path d="M1154.36,599.1094 C1260.42,599.1094 1455.2,599.1094 1556.4,599.1094 " fill="none" id="P3-to-C2" style="stroke:#181818;stroke-width:1.0;"/><polygon fill="#181818" points="1562.4,599.1094,1553.4,595.1094,1557.4,599.1094,1553.4,603.1094,1562.4,599.1094" style="stroke:#181818;stroke-width:1.0;"/></g><!--link P4 to C4--><g id="link_P4_C4"><path d="M876.13,573.7794 C891.93,573.7794 904,573.7794 904,573.7794 C904,573.7794 904,799.1094 904,799.1094 C904,799.1094 1356.89,799.1094 1541.97,799.1094 " fill="none" id="P4-to-C4" style="stroke:#181818;stroke-width:1.0;"/><polygon fill="#181818" points="1547.97,799.1094,1538.97,795.1094,1542.97,799.1094,1538.97,803.1094,1547.97,799.1094" style="stroke:#181818;stroke-width:1.0;"/></g><!--link P5 to C3--><g id="link_P5_C3"><path d="M916,473.5694 C916,488.1294 916,516.3594 916,516.3594 C916,516.3594 1390.97,516.3594 1560.06,516.3594 " fill="none" id="P5-to-C3" style="stroke:#181818;stroke-width:1.0;"/><polygon fill="#181818" points="1566.06,516.3594,1557.06,512.3594,1561.06,516.3594,1557.06,520.3594,1566.06,516.3594" style="stroke:#181818;stroke-width:1.0;"/></g><!--link P6 to C3--><g id="link_P6_C3"><path d="M1466.28,465.1094 C1539.97,465.1094 1624,465.1094 1624,465.1094 C1624,465.1094 1624,476.0694 1624,492.1094 " fill="none" id="P6-to-C3" style="stroke:#181818;stroke-width:1.0;"/><polygon fill="#181818" points="1624,498.1094,1628,489.1094,1624,493.1094,1620,489.1094,1624,498.1094" style="stroke:#181818;stroke-width:1.0;"/></g><!--link SemiExternal to GMN63--><g id="link_SemiExternal_GMN63"><path d="M249.39,463.8594 C289.45,463.8594 328,463.8594 328,463.8594 C328,463.8594 328,176.1094 328,176.1094 C328,176.1094 312.69,176.1094 291.35,176.1094 " fill="none" id="SemiExternal-GMN63" style="stroke:#181818;stroke-width:1.0;stroke-dasharray:7.0,7.0;"/></g><!--link External to GMN66--><g id="link_External_GMN66"><path d="M68.15,376.1094 C35.14,376.1094 6,376.1094 6,376.1094 C6,376.1094 6,82.1094 6,82.1094 C6,82.1094 14.37,82.1094 27.23,82.1094 " fill="none" id="External-GMN66" style="stroke:#181818;stroke-width:1.0;stroke-dasharray:7.0,7.0;"/></g><!--SRC=[ZLVTJXj75BxVfnXnarODjFY72oHQHRGNKMyikRdZneM5MBNNo2nLegXIR8T0HIe21SKY2U57QbIr4ik2yTPWymephz0Nw2lqEsTcpUxQJY84ktDsvlnyvpld32LxqHLkHLIBImzTiL2islDkiU9ORj4jsUB1YYrc2olsj93lP4zUgHUoZQSlFLMNBNab0t4lTr_8VNaWts3BItaaneKybdiGdSW_8JWLyaWs8Jh1uW-ydLhM7O4tNxQWH2lR4ggcrg3nMdhMoaz5PxbGBPJ5VAMyN75inysxZ-7DQhcKYdmj5HtRVRniYqhLVLY9V5Ym5mkh9VS7-v5xhrHSSihG8ERnnwwIxPcP6UtnQ_o-nTjBCSa1akHl-GhF7VXAGRoMJTfk4Ie5Pma-ZE7dYIL4OTwjLCKOTdPLGzNLKpZVnKyW_n5OUBBDVyza3n_N8UxCEP_1Lez2nBuBwS4azWH0iISl-JWTDdjkW4fDUdCEtdho0ZfLGtOco4qSXqRQtv4z8NScvBk9pyT4OKNSfn2TGYdYdqvR0oXtWVV6Hps4UfYgmyGsdfjt1UM9_UtHMjl9s-NYTuy6REryeWtQLHUiiWPvWu8LiYCedZuyBMAMDjStzSk8zAMGlYPeTWp9UyYQa0uaJkv6x7NL9Yp8W0GGhxFF7HdevAwksFDWFSuSg6VOz1mVFMP_byWwvo0rDnoPZqEUo7_xlSPbCdPu7wb55h4ve8JX2GjazeRpVWqH80KYwQ-4sb1rP1SuSKKjs3yRg5CnbSSuiwOfGHX1poLvGAZka3K8IN6WdWhW4s1d8Bi2B0e4qdXEV8c2x1aZwPYHLnIctaSmaN9_WEQjBzcD9BTQHcCcfX54LrjQ6n6gnmXGDX0z4Z-SAbXT4nXQONPazjDSl8TORqEwXqRqrq3kgT9wK7v5FKPj2iBZXamnXbZu7DgrBiCa2zvp6d6gIqIbi0DA9dptITRIIE2jHxoFSgF5pkVYl3Z42P-JNwFqo7EXrW7Z9OxtCuJSwAFn_F_EAVOqrDCwXdMEgG5lu8guHH5FrDatMaqymmSm5jmgOjwPXamjXrZ8q0nIBT3gukazuJBo648VH61sTCCeTR5H9ulINkl9nlHiCoisDCSqMPWe47J02Y9B8DlZc44UmQmRPrUNTUZPr4YUP4oJFsAMx7A_sA61DCWMKibSkM3LFlAzHGthYXvdv0HJlaP9UfAe7On6S5sN2uK03HG2e4FVI12z3-Xid26xp4NQ4F1yV4uE31utTO8PgfMa4hshpaNKvlGIMJad5wQ8eL6VYbFZBKwSyxHfSsyZpiFoK3QeXjQG6R3h4tfcIWMK_D6kzqjyDbhYHqZDAT1iubMW06j85fewYhkPo2kBA8DqhHWSnoqhd8fYVFnhQj7nTIgnJYVMcSGwQrdvINxDJOhfi9Vx34n0OwrZvLFwUnRV4QUdXuoLJsjnXexvu4ORlxwkKYkVqHzJz37WLd9E1Mhbi_nXbfIPCYLYTimv2dhOZ6zPqI4TXZueImsHfOV8Cf6mRmEyZUasW30F4LUIRYHTI9h_YAcS-Jh5G3AbjpNoERCxFGpYd54mPUKoeVfSrXnWhm_acVhLZEXXBI2qZ6erbkXDgqNn6RKe1wCMfGKdpPl9bDg2tcvOWO8Nw2UgOJaLrnO_LbotKXQLnUXbxj_zm_y2T9uzlh-yODBHFELv4xr7YGyEqxjGHSmIwZSY9DdkeSh1CerVDrhwgc767VcvPjdEWY07hQIRYRjWw6eJXVYCxenqrz3zozGAsaXOAwecg9T7nWi28YTDfnromL1hOdGh6Utb40-F21BTeHi0iqqfre9fxE9_JUZ6rz50HQzxNz28_fIh7ON2i_I3pI_sxnCT0N4vDPtm7ist3GmUVMaYw422mLa23lK1-1y0]--></g></svg>